<svg width="48" height="48" viewBox="0 0 48 48" fill="none" xmlns="http://www.w3.org/2000/svg">
<path d="M34 13H35M6 18.8C6 14.32 6 12.08 6.872 10.368C7.63898 8.86277 8.86277 7.63898 10.368 6.872C12.08 6 14.32 6 18.8 6H29.2C33.68 6 35.92 6 37.632 6.872C39.1372 7.63898 40.361 8.86277 41.128 10.368C42 12.08 42 14.32 42 18.8V29.2C42 33.68 42 35.92 41.128 37.632C40.361 39.1372 39.1372 40.361 37.632 41.128C35.92 42 33.68 42 29.2 42H18.8C14.32 42 12.08 42 10.368 41.128C8.86277 40.361 7.63898 39.1372 6.872 37.632C6 35.92 6 33.68 6 29.2V18.8Z" stroke="#F9F9F9" stroke-width="3" stroke-linecap="round" stroke-linejoin="round"/>
<path d="M30.924 22.9741C31.0587 23.8835 31.013 24.8106 30.7895 25.7023C30.566 26.5941 30.169 27.433 29.6212 28.1714C29.0734 28.9097 28.3856 29.5329 27.597 30.0054C26.8084 30.4779 25.9344 30.7904 25.025 30.9251C24.1156 31.0599 23.1886 31.0142 22.2968 30.7906C21.4051 30.5671 20.5661 30.1701 19.8278 29.6223C18.3367 28.5161 17.3461 26.8628 17.074 25.0261C16.8019 23.1895 17.2705 21.32 18.3768 19.8289C19.4831 18.3378 21.1364 17.3472 22.973 17.0751C24.8096 16.803 26.6791 17.2717 28.1702 18.3779C29.6613 19.4842 30.6519 21.1375 30.924 22.9741Z" stroke="#F9F9F9" stroke-width="3" stroke-linecap="round" stroke-linejoin="round"/>
</svg>
