<svg width="48" height="48" viewBox="0 0 48 48" fill="none" xmlns="http://www.w3.org/2000/svg">
<path d="M41.8 4H6.2C5.61652 4 5.05695 4.23179 4.64437 4.64437C4.23179 5.05695 4 5.61652 4 6.2V41.8C4 42.3835 4.23179 42.9431 4.64437 43.3556C5.05695 43.7682 5.61652 44 6.2 44H25.36V28.5H20.16V22.5H25.36V18C25.2523 16.9435 25.377 15.8763 25.7254 14.8731C26.0739 13.8699 26.6375 12.9551 27.3769 12.1928C28.1163 11.4306 29.0135 10.8393 30.0057 10.4605C30.9978 10.0817 32.0607 9.9245 33.12 10C34.6767 9.98925 36.2327 10.0694 37.78 10.24V15.64H34.6C32.08 15.64 31.6 16.84 31.6 18.58V22.44H37.6L36.82 28.44H31.6V44H41.8C42.0889 44 42.375 43.9431 42.6419 43.8325C42.9088 43.722 43.1513 43.5599 43.3556 43.3556C43.5599 43.1513 43.722 42.9088 43.8325 42.6419C43.9431 42.375 44 42.0889 44 41.8V6.2C44 5.91109 43.9431 5.62501 43.8325 5.3581C43.722 5.09118 43.5599 4.84865 43.3556 4.64437C43.1513 4.44008 42.9088 4.27803 42.6419 4.16747C42.375 4.0569 42.0889 4 41.8 4Z" fill="#F9F9F9"/>
</svg>
