<svg width="150" height="33" viewBox="0 0 150 33" fill="none" xmlns="http://www.w3.org/2000/svg">
<path d="M70.2504 0C73.2579 0 76.0345 0.892563 78.4249 2.43426C78.8874 2.6777 79.2729 3.08362 79.7355 3.40813C79.9668 3.65154 79.9666 3.97616 79.8124 4.21955C78.3474 5.92342 77.2678 8.03293 76.5738 10.2236C76.4967 10.6291 76.0344 10.7918 75.726 10.4676C75.4176 10.0619 74.9546 9.73672 74.5691 9.41215C73.3353 8.51967 71.8699 8.03338 70.2504 8.03338C66.7033 8.03344 63.6961 10.6299 62.8478 14.119C62.6937 14.7681 62.6164 15.4174 62.6164 16.1476C62.6165 16.8777 62.6937 17.5271 62.8478 18.1761C63.6962 21.665 66.7034 24.2617 70.2504 24.2618C71.8699 24.2618 73.3352 23.7748 74.5691 22.8822C74.9546 22.5577 75.3404 22.2332 75.726 21.8275C75.9573 21.5841 76.4196 21.6651 76.5738 22.0708C77.2678 24.3427 78.3475 26.3713 79.7355 28.1565C79.8896 28.3999 79.8899 28.8056 79.6587 28.9679C79.2731 29.2924 78.8099 29.6172 78.3473 29.9417C75.9569 31.4833 73.1809 32.376 70.1736 32.376C65.3155 32.376 60.9194 29.9413 58.1433 26.2087V30.7532C58.1432 31.0776 57.9121 31.3205 57.6037 31.3205H50.9721C50.6638 31.3205 50.4326 31.0776 50.4325 30.7532V16.1476C50.4325 11.6848 46.9623 8.03311 42.644 8.1142C38.4028 8.19535 35.087 11.8466 35.0868 16.3092V30.7532C35.0866 31.0775 34.8554 31.3203 34.5472 31.3205H27.9147C27.6066 31.3203 27.3753 31.0774 27.3751 30.7532V26.2087C24.599 29.9413 20.2038 32.376 15.3457 32.376C6.86316 32.376 0 25.154 0 16.2284C0 7.30278 6.86316 0.0808251 15.3457 0.0808251C21.3604 0.0808483 26.5269 3.73241 29.0717 9.00644C31.6164 3.73237 36.7832 0.0808958 42.7208 0.0808251C48.7357 0.0808251 53.9795 3.65171 56.6014 8.84481C59.069 3.5706 64.2356 4.58914e-05 70.2504 0ZM93.2306 0.0808251C101.019 0.0808592 107.497 6.24796 108.422 14.1999C108.499 14.8489 108.5 15.5789 108.731 16.1468C108.731 16.877 108.654 17.5263 108.577 18.1753C108.577 18.7432 108.422 19.3114 108.345 19.7982C108.268 20.0415 108.037 20.2038 107.805 20.2039H86.753C88.0643 22.6381 90.5326 24.261 93.3856 24.261C95.3135 24.2609 97.0865 23.5305 98.474 22.2324C98.6282 21.9891 98.9373 21.9892 99.1686 22.2324C100.711 23.8553 102.331 25.4781 103.873 27.101C104.104 27.3443 104.104 27.669 103.873 27.9124C101.097 30.6712 97.3948 32.3752 93.3077 32.3752C86.1363 32.3751 80.1214 27.2636 78.4249 20.2855C78.2707 19.6365 78.1169 18.906 78.0398 18.257C77.9627 17.6079 77.8853 16.8775 77.8852 16.2284C77.8852 15.4982 77.9627 14.8489 78.0398 14.1999C78.9652 6.24794 85.4426 0.0808251 93.2306 0.0808251ZM15.2688 8.35747C11.1047 8.35747 7.63401 11.928 7.63401 16.3909V17.608C7.71112 17.6891 7.71167 17.7701 7.71167 17.8513C7.78847 17.8515 7.78852 17.9326 7.78852 18.0137V18.0945C7.78852 18.1757 7.86539 18.3383 7.86539 18.4194V18.5002C7.9425 18.5002 7.94304 18.5815 7.94304 18.6627C8.01999 18.7437 8.01991 18.7441 8.01991 18.8251C8.02001 18.9062 8.09678 18.9873 8.09678 19.0684C8.09678 19.0684 8.17441 19.1497 8.17441 19.2308C8.25125 19.3117 8.25125 19.3122 8.25125 19.3933C8.32818 19.5552 8.32818 19.6364 8.40502 19.7174V19.799C8.4821 19.8801 8.48243 19.9611 8.55951 20.0422C8.63465 20.0422 8.63635 20.1191 8.63644 20.1231V20.2047L8.79093 20.5288L8.01991 23.8561L11.027 22.963L11.413 23.2063C11.4804 23.2772 11.6065 23.2865 11.6888 23.3418L11.7538 23.3957C11.8359 23.4511 11.962 23.4604 12.0295 23.5312C12.1066 23.6123 12.2614 23.6125 12.3385 23.6936C12.4157 23.7747 12.5697 23.8561 12.6467 23.8561H12.7236C12.8006 23.8561 12.9547 23.9367 13.0318 23.9369C13.109 23.9369 13.2638 24.0177 13.3409 24.0177H13.4177C13.6491 24.0989 13.8806 24.1802 14.1119 24.1802H14.1887C14.5743 24.2613 14.9601 24.2618 15.3457 24.2618C16.1938 24.2618 16.9648 24.1802 17.6587 23.9369C20.8203 22.8821 23.057 19.8799 22.9028 16.3909C22.9028 12.0092 19.5098 8.43861 15.3457 8.35747H15.2688ZM93.1543 8.1142C89.6068 8.1142 86.5988 10.7107 85.7509 14.1999H100.557C99.7082 10.7108 96.701 8.11437 93.1543 8.1142Z" fill="#EA3516"/>
<path d="M150 27.9099C150 27.978 149.994 28.0678 149.982 28.1793H145.988C146.043 28.6128 146.232 28.9627 146.554 29.229C146.882 29.4891 147.287 29.6192 147.771 29.6192C148.359 29.6192 148.833 29.421 149.192 29.0247L149.684 29.6006C149.461 29.8608 149.183 30.0589 148.849 30.1951C148.52 30.3314 148.152 30.3995 147.743 30.3995C147.223 30.3995 146.762 30.2942 146.358 30.0837C145.956 29.8669 145.643 29.5665 145.42 29.1826C145.204 28.7986 145.095 28.3651 145.095 27.882C145.095 27.4051 145.2 26.9747 145.411 26.5907C145.628 26.2067 145.922 25.9095 146.293 25.6989C146.672 25.4821 147.096 25.3738 147.567 25.3738C148.037 25.3738 148.455 25.4821 148.82 25.6989C149.192 25.9095 149.48 26.2067 149.684 26.5907C149.895 26.9747 150 27.4144 150 27.9099ZM147.567 26.1262C147.139 26.1262 146.779 26.2563 146.489 26.5164C146.204 26.7765 146.037 27.1171 145.988 27.5382H149.146C149.096 27.1234 148.926 26.7858 148.634 26.5257C148.35 26.2594 147.993 26.1262 147.567 26.1262Z" fill="#EA3516"/>
<path d="M142.462 30.3995C141.96 30.3995 141.511 30.2911 141.115 30.0744C140.725 29.8577 140.418 29.5604 140.195 29.1826C139.972 28.7986 139.86 28.3651 139.86 27.882C139.86 27.3989 139.972 26.9685 140.195 26.5907C140.418 26.2067 140.725 25.9095 141.115 25.6989C141.511 25.4821 141.96 25.3738 142.462 25.3738C142.907 25.3738 143.304 25.4635 143.651 25.6432C144.004 25.8227 144.276 26.0829 144.469 26.4235L143.79 26.8601C143.635 26.6247 143.444 26.4483 143.214 26.3306C142.985 26.2129 142.731 26.1541 142.452 26.1541C142.131 26.1541 141.84 26.2253 141.579 26.3678C141.325 26.5102 141.124 26.7146 140.975 26.9809C140.833 27.241 140.762 27.5414 140.762 27.882C140.762 28.2288 140.833 28.5354 140.975 28.8017C141.124 29.0618 141.325 29.2631 141.579 29.4056C141.84 29.548 142.131 29.6192 142.452 29.6192C142.731 29.6192 142.985 29.5604 143.214 29.4427C143.444 29.325 143.635 29.1485 143.79 28.9132L144.469 29.3405C144.276 29.6811 144.004 29.9443 143.651 30.1302C143.304 30.3097 142.907 30.3995 142.462 30.3995Z" fill="#EA3516"/>
<path d="M136.595 25.3738C137.22 25.3738 137.715 25.5564 138.08 25.9218C138.452 26.281 138.638 26.8105 138.638 27.5104V30.3438H137.746V27.6126C137.746 27.1357 137.632 26.7765 137.403 26.535C137.173 26.2934 136.845 26.1727 136.418 26.1727C135.935 26.1727 135.553 26.3151 135.275 26.6C134.996 26.8787 134.857 27.2813 134.857 27.8077V30.3438H133.966V25.4202H134.82V26.1634C134.999 25.9095 135.241 25.7143 135.545 25.5781C135.855 25.4418 136.204 25.3738 136.595 25.3738Z" fill="#EA3516"/>
<path d="M130.207 25.3738C130.889 25.3738 131.409 25.5409 131.768 25.8754C132.133 26.2099 132.316 26.7084 132.316 27.3711V30.3438H131.47V29.6935C131.322 29.9227 131.109 30.0992 130.829 30.2231C130.557 30.3407 130.232 30.3995 129.854 30.3995C129.303 30.3995 128.86 30.2664 128.526 30.0001C128.197 29.7338 128.033 29.3839 128.033 28.9503C128.033 28.5168 128.191 28.17 128.507 27.9099C128.823 27.6436 129.324 27.5104 130.012 27.5104H131.424V27.3339C131.424 26.9499 131.313 26.6557 131.09 26.4513C130.867 26.2469 130.538 26.1448 130.105 26.1448C129.813 26.1448 129.529 26.1944 129.25 26.2934C128.971 26.3863 128.736 26.5132 128.544 26.6743L128.173 26.0055C128.427 25.8011 128.73 25.6462 129.083 25.5409C129.436 25.4294 129.811 25.3738 130.207 25.3738ZM130.003 29.7121C130.343 29.7121 130.638 29.6378 130.885 29.4891C131.133 29.3343 131.313 29.1176 131.424 28.8389V28.1514H130.049C129.293 28.1514 128.916 28.4053 128.916 28.9132C128.916 29.1609 129.012 29.356 129.204 29.4985C129.396 29.6409 129.662 29.7121 130.003 29.7121Z" fill="#EA3516"/>
<path d="M125.82 23.4508H126.711V30.3439H125.82V23.4508Z" fill="#EA3516"/>
<path d="M122.06 25.3738C122.741 25.3738 123.261 25.5409 123.621 25.8754C123.986 26.2099 124.168 26.7084 124.168 27.3711V30.3438H123.323V29.6935C123.174 29.9227 122.961 30.0992 122.682 30.2231C122.409 30.3407 122.085 30.3995 121.707 30.3995C121.156 30.3995 120.713 30.2664 120.378 30.0001C120.05 29.7338 119.886 29.3839 119.886 28.9503C119.886 28.5168 120.044 28.17 120.36 27.9099C120.675 27.6436 121.177 27.5104 121.865 27.5104H123.277V27.3339C123.277 26.9499 123.166 26.6557 122.942 26.4513C122.719 26.2469 122.391 26.1448 121.957 26.1448C121.666 26.1448 121.381 26.1944 121.103 26.2934C120.824 26.3863 120.588 26.5132 120.397 26.6743L120.025 26.0055C120.279 25.8011 120.583 25.6462 120.936 25.5409C121.289 25.4294 121.664 25.3738 122.06 25.3738ZM121.855 29.7121C122.196 29.7121 122.49 29.6378 122.738 29.4891C122.985 29.3343 123.166 29.1176 123.277 28.8389V28.1514H121.901C121.146 28.1514 120.769 28.4053 120.769 28.9132C120.769 29.1609 120.864 29.356 121.057 29.4985C121.248 29.6409 121.514 29.7121 121.855 29.7121Z" fill="#EA3516"/>
<path d="M116.59 25.3738C117.067 25.3738 117.494 25.4791 117.872 25.6897C118.249 25.9002 118.544 26.1944 118.754 26.5722C118.971 26.9499 119.079 27.3866 119.079 27.882C119.079 28.3775 118.971 28.8172 118.754 29.2012C118.544 29.579 118.249 29.8732 117.872 30.0837C117.494 30.2943 117.067 30.3996 116.59 30.3996C116.225 30.3996 115.89 30.3284 115.586 30.1859C115.283 30.0435 115.032 29.836 114.834 29.5635V30.3439H113.979V23.4508H114.871V26.1634C115.069 25.9033 115.317 25.7082 115.614 25.5782C115.911 25.4419 116.237 25.3738 116.59 25.3738ZM116.515 29.6192C116.832 29.6192 117.113 29.548 117.361 29.4056C117.615 29.2569 117.813 29.0526 117.955 28.7924C118.104 28.5261 118.179 28.2227 118.179 27.882C118.179 27.5414 118.104 27.241 117.955 26.9809C117.813 26.7146 117.615 26.5102 117.361 26.3678C117.113 26.2254 116.832 26.1541 116.515 26.1541C116.206 26.1541 115.924 26.2254 115.67 26.3678C115.416 26.5102 115.218 26.7146 115.076 26.9809C114.933 27.241 114.861 27.5414 114.861 27.882C114.861 28.2227 114.933 28.5261 115.076 28.7924C115.218 29.0526 115.416 29.2569 115.67 29.4056C115.924 29.548 116.206 29.6192 116.515 29.6192Z" fill="#EA3516"/>
<path d="M126.821 16.55C126.821 16.6181 126.814 16.7079 126.802 16.8194H122.808C122.864 17.2529 123.053 17.6028 123.374 17.8691C123.703 18.1292 124.108 18.2593 124.591 18.2593C125.179 18.2593 125.653 18.0612 126.013 17.6648L126.505 18.2407C126.282 18.5009 126.004 18.699 125.669 18.8353C125.341 18.9715 124.973 19.0397 124.564 19.0397C124.043 19.0397 123.582 18.9343 123.179 18.7238C122.777 18.507 122.464 18.2067 122.241 17.8227C122.025 17.4387 121.916 17.0052 121.916 16.5221C121.916 16.0452 122.021 15.6148 122.232 15.2308C122.448 14.8468 122.743 14.5496 123.114 14.339C123.492 14.1222 123.916 14.0139 124.387 14.0139C124.857 14.0139 125.276 14.1222 125.641 14.339C126.013 14.5496 126.301 14.8468 126.505 15.2308C126.715 15.6148 126.821 16.0545 126.821 16.55ZM124.387 14.7663C123.96 14.7663 123.6 14.8964 123.309 15.1565C123.024 15.4166 122.857 15.7572 122.808 16.1783H125.967C125.917 15.7635 125.747 15.4259 125.455 15.1658C125.171 14.8995 124.814 14.7663 124.387 14.7663Z" fill="#EA3516"/>
<path d="M120.971 12.7691C120.438 12.7691 120.172 13.0571 120.172 13.6331V14.0604H121.603V14.7943H120.191V18.984H119.299V14.7943H118.463V14.0604H119.299V13.6238C119.299 13.1345 119.441 12.7474 119.726 12.4625C120.011 12.1776 120.411 12.0352 120.924 12.0352C121.122 12.0352 121.308 12.06 121.482 12.1096C121.655 12.1591 121.804 12.2303 121.928 12.3232L121.659 13.0014C121.454 12.8465 121.225 12.7691 120.971 12.7691Z" fill="#EA3516"/>
<path d="M116.574 14.0604H117.466V18.9841H116.574V14.0604ZM117.021 13.1129C116.847 13.1129 116.702 13.0571 116.584 12.9456C116.472 12.8342 116.417 12.6979 116.417 12.5369C116.417 12.3759 116.472 12.2396 116.584 12.1281C116.702 12.0105 116.847 11.9516 117.021 11.9516C117.194 11.9516 117.336 12.0073 117.447 12.1188C117.566 12.2241 117.624 12.3573 117.624 12.5183C117.624 12.6855 117.566 12.828 117.447 12.9456C117.336 13.0571 117.194 13.1129 117.021 13.1129Z" fill="#EA3516"/>
<path d="M113.979 12.0909H114.871V18.984H113.979V12.0909Z" fill="#EA3516"/>
<path d="M126.246 7.33611C126.116 7.44758 125.955 7.53429 125.763 7.59623C125.571 7.65196 125.373 7.67983 125.169 7.67983C124.673 7.67983 124.289 7.54668 124.017 7.28036C123.744 7.01406 123.608 6.63318 123.608 6.13771V3.43436H122.772V2.70046H123.608V1.62284H124.499V2.70046H125.911V3.43436H124.499V6.10055C124.499 6.36687 124.564 6.57124 124.695 6.71368C124.831 6.85613 125.023 6.92736 125.27 6.92736C125.543 6.92736 125.775 6.84994 125.967 6.6951L126.246 7.33611Z" fill="#EA3516"/>
<path d="M120.387 3.5272C120.542 3.24231 120.771 3.02555 121.074 2.87692C121.378 2.72827 121.746 2.65395 122.18 2.65395V3.51791C122.13 3.51172 122.062 3.50862 121.976 3.50862C121.492 3.50862 121.112 3.65417 120.833 3.94525C120.561 4.23014 120.425 4.63889 120.425 5.17151V7.62403H119.532V2.70041H120.387V3.5272Z" fill="#EA3516"/>
<path d="M115.773 2.65405C116.454 2.65405 116.974 2.82127 117.333 3.1557C117.699 3.49014 117.882 3.9887 117.882 4.65138V7.62413H117.036V6.97384C116.888 7.20299 116.674 7.3795 116.395 7.50337C116.122 7.62103 115.798 7.67987 115.42 7.67987C114.869 7.67987 114.426 7.54671 114.091 7.2804C113.763 7.0141 113.599 6.66418 113.599 6.23065C113.599 5.79713 113.757 5.4503 114.073 5.19019C114.388 4.92388 114.89 4.79072 115.578 4.79072H116.99V4.61422C116.99 4.23024 116.878 3.93605 116.655 3.73168C116.432 3.5273 116.104 3.42511 115.67 3.42511C115.379 3.42511 115.094 3.47466 114.816 3.57375C114.537 3.66665 114.302 3.79361 114.11 3.95464L113.738 3.28577C113.992 3.08139 114.296 2.92656 114.649 2.82127C115.002 2.7098 115.377 2.65405 115.773 2.65405ZM115.568 6.99242C115.909 6.99242 116.204 6.9181 116.451 6.76946C116.698 6.61463 116.878 6.39787 116.99 6.11917V5.43172H115.614C114.859 5.43172 114.482 5.68565 114.482 6.19349C114.482 6.44122 114.577 6.63631 114.77 6.77875C114.961 6.9212 115.227 6.99242 115.568 6.99242Z" fill="#EA3516"/>
</svg>
