<svg width="150" height="155" viewBox="0 0 150 155" fill="none" xmlns="http://www.w3.org/2000/svg">
<path d="M62.8538 67.9321C53.3619 67.9321 46.2165 71.5223 43.1694 78.6851L47.6351 80.8392C50.157 75.4803 55.1481 73.1334 62.8538 73.1334C71.9957 73.1334 77.0045 77.7919 77.0045 84.5869V93.9038C74.3248 88.5274 68.2305 82.6254 59.9993 82.6254C50.8752 82.6254 45.1307 87.9845 45.1307 94.9896V102.503C45.1307 107.336 49.4214 110.384 53.7297 110.384C58.0378 110.384 61.7856 107.336 61.7856 102.503C61.7856 97.669 57.8453 94.6218 54.08 94.6218C53.0118 94.6218 51.2078 94.9896 50.3146 95.6903V94.797C50.3146 89.9635 53.3619 87.4591 59.9818 87.4591C67.4948 87.4591 73.4141 94.797 76.9868 104.832V109.315H82.3634V84.6044C82.3634 74.7621 74.3073 67.9496 62.8364 67.9496M53.5544 98.9126C55.5334 98.9126 57.1271 100.524 57.1271 102.503C57.1271 104.482 55.5159 106.075 53.5544 106.075C51.5931 106.075 49.9645 104.464 49.9645 102.503C49.9645 100.541 51.5756 98.9126 53.5544 98.9126Z" fill="#2F2822"/>
<path d="M30.6302 94.6224C29.5619 94.6224 27.9507 94.9902 27.04 95.6909V68.4756H21.6635V102.486C21.6635 107.319 25.9543 110.367 30.2624 110.367C34.5705 110.367 38.3184 107.319 38.3184 102.486C38.3184 97.6522 34.3779 94.6049 30.6127 94.6049M30.0873 106.058C28.1258 106.058 26.5146 104.447 26.5146 102.486C26.5146 100.524 28.1258 98.8958 30.0873 98.8958C32.0486 98.8958 33.66 100.507 33.66 102.486C33.66 104.465 32.0486 106.058 30.0873 106.058ZM8.96664 94.6224C7.89835 94.6224 6.28718 94.9902 5.37652 95.6909V68.4756H3.05176e-05V102.486C3.05176e-05 107.319 4.30823 110.367 8.59888 110.367C12.8896 110.367 16.6548 107.319 16.6548 102.486C16.6548 97.6522 12.7144 94.6049 8.96664 94.6049M8.42375 106.058C6.44478 106.058 4.85109 104.447 4.85109 102.486C4.85109 100.524 6.46231 98.8958 8.42375 98.8958C10.3852 98.8958 12.0139 100.507 12.0139 102.486C12.0139 104.465 10.4027 106.058 8.42375 106.058Z" fill="#2F2822"/>
<path d="M104.746 85.8477C114.956 85.8477 122.486 81.3818 124.991 69.5605L119.964 68.4748C117.635 77.5991 113.345 81.1893 104.395 81.1893C103.502 81.1893 102.241 81.014 101.541 80.8389C102.959 80.121 104.22 77.4415 104.22 75.8304C104.22 71.5395 101.19 67.9494 96.5145 67.9494C91.8385 67.9494 88.6512 71.3645 88.6512 75.6551C88.6512 82.2751 95.6387 85.8652 104.763 85.8652M96.5145 72.2402C98.3184 72.2402 99.9121 73.8514 99.9121 75.6376C99.9121 77.4238 98.3184 78.8599 96.5145 78.8599C94.7108 78.8599 93.2921 77.4238 93.2921 75.6376C93.2921 73.8514 94.7282 72.2402 96.5145 72.2402ZM104.395 104.639C103.502 104.639 102.241 104.464 101.541 104.289C102.959 103.571 104.22 100.874 104.22 99.28C104.22 94.9894 101.19 91.3992 96.5145 91.3992C91.8385 91.3992 88.6512 94.7968 88.6512 99.1049C88.6512 105.725 95.6387 109.315 104.763 109.315C114.973 109.315 122.504 104.832 125.008 93.0104L119.982 91.9421C117.653 101.066 113.362 104.657 104.413 104.657M96.5145 102.31C94.7282 102.31 93.2921 100.874 93.2921 99.0875C93.2921 97.3012 94.7282 95.69 96.5145 95.69C98.3009 95.69 99.9121 97.3012 99.9121 99.0875C99.9121 100.874 98.3184 102.31 96.5145 102.31Z" fill="#2F2822"/>
<path d="M75.5 112.504C67.987 112.504 61.7174 115.726 58.6701 121.278L63.1533 123.957C65.8327 119.666 70.1411 117.512 75.5175 117.512C83.2232 117.512 87.6889 121.453 87.6889 128.423V140.227C86.7782 139.526 85.1845 139.158 84.0987 139.158C80.3335 139.158 76.3932 142.206 76.3932 147.039C76.3932 151.873 80.3335 154.92 84.4491 154.92C88.5646 154.92 93.0305 151.873 93.0305 147.039V128.405C93.0305 118.213 85.5173 112.469 75.4825 112.469M84.6241 150.647C82.6626 150.647 81.0517 149.035 81.0517 147.074C81.0517 145.113 82.6626 143.484 84.6241 143.484C86.5856 143.484 88.2145 145.095 88.2145 147.074C88.2145 149.053 86.6031 150.647 84.6241 150.647Z" fill="#2F2822"/>
<path d="M59.2112 109.824L54.7628 108.668C52.9766 112.241 49.1761 113.764 46.4967 113.764C40.7525 113.764 38.9837 112.503 34.3078 112.503C24.8158 112.503 17.653 116.076 14.6232 123.239L19.1065 125.393C21.6109 120.034 26.6195 117.687 34.3253 117.687C43.4494 117.687 48.4757 122.345 48.4757 129.14V138.44C45.7787 133.063 39.7017 127.179 31.4708 127.162C22.3289 127.162 16.6022 132.521 16.6022 139.508V147.021C16.6022 151.855 20.8928 154.902 25.2009 154.902C29.5092 154.902 33.257 151.855 33.257 147.021C33.257 142.188 29.3165 139.14 25.5687 139.14C24.483 139.14 22.6967 139.508 21.8035 140.209V139.316C21.8035 134.482 24.8508 131.978 31.4708 131.978C39.0012 131.978 44.903 139.316 48.4757 149.35V153.834H53.8521V129.123C53.8521 123.922 52.0659 120.174 49.0186 117.669C53.4845 117.494 57.6175 114.447 59.2287 109.789M25.0084 143.484C26.9874 143.484 28.581 145.095 28.581 147.074C28.581 149.053 26.9699 150.646 25.0084 150.646C23.0469 150.646 21.4182 149.035 21.4182 147.074C21.4182 145.112 23.0294 143.484 25.0084 143.484Z" fill="#2F2822"/>
<path d="M138.354 135.236V113.029H133.153V135.586C125.815 137.022 116.865 140.595 112.032 144.553V120.735C112.032 115.919 107.741 112.872 103.433 112.872C99.1249 112.872 95.3771 115.919 95.3771 120.735C95.3771 125.551 99.3176 128.616 103.433 128.616C104.501 128.616 105.762 128.248 106.656 127.547V153.869H112.032V150.822C116.515 146.339 126.165 141.873 133.153 140.612V146.707C133.153 152.083 137.829 154.587 141.576 154.587C146.41 154.587 150 150.997 150 145.621C150 140.962 145.884 135.411 138.354 135.236ZM103.608 124.325C101.647 124.325 100.036 122.714 100.036 120.752C100.036 118.791 101.647 117.162 103.608 117.162C105.57 117.162 107.181 118.773 107.181 120.752C107.181 122.731 105.57 124.325 103.608 124.325ZM141.576 149.929C139.44 149.929 138.354 148.686 138.354 146.707V140.069C142.645 140.244 144.974 143.467 144.974 145.621C144.974 148.318 143.713 149.911 141.576 149.911" fill="#2F2822"/>
<path d="M75.8643 27.9334C69.0692 27.9334 62.6246 31.3483 60.2952 36.3571L64.9537 38.8615C66.7401 35.1138 70.6804 32.9597 75.8643 32.9597C82.309 32.9597 86.6173 36.3571 86.6173 41.7335V69.2989H91.9937V41.7335C91.9937 33.5026 84.8308 27.9509 75.8817 27.9509" fill="#2F2822"/>
<path d="M50.2606 28.4575V58.0019C50.2606 61.9247 48.1065 64.2715 44.7089 64.2715H26.6355V36.1633C26.6355 31.3297 22.3448 28.2825 18.0367 28.2825C13.7285 28.2825 9.98081 31.3297 9.98081 36.1633C9.98081 40.9968 13.9212 44.0441 18.0367 44.0441C19.105 44.0441 20.3659 43.6939 21.2591 42.9758V64.289H15.8827V69.2978H44.7089C50.9785 69.2978 55.812 64.6394 55.812 58.0194V28.475H50.2606V28.4575ZM18.2119 39.7534C16.2329 39.7534 14.6217 38.1423 14.6217 36.1807C14.6217 34.2195 16.2329 32.6081 18.2119 32.6081C20.1908 32.6081 21.802 34.2195 21.802 36.1807C21.802 38.1423 20.1908 39.7534 18.2119 39.7534Z" fill="#2F2822"/>
<path d="M138.354 50.664V28.4575H133.17V51.0144C125.814 52.4502 116.883 56.0229 112.049 59.9809V36.1633C112.049 31.3297 107.759 28.2825 103.45 28.2825C99.1421 28.2825 95.3944 31.3297 95.3944 36.1633C95.3944 40.9968 99.3172 44.0441 103.45 44.0441C104.536 44.0441 105.78 43.6762 106.673 42.9758V69.2978H112.049V66.2505C116.515 61.7846 126.182 57.3015 133.17 56.0404V62.135C133.17 67.5114 137.828 70.0158 141.594 70.0158C146.427 70.0158 150 66.4256 150 61.0667C150 56.4082 145.884 50.8566 138.354 50.6815M103.626 39.7534C101.664 39.7534 100.053 38.1423 100.053 36.1807C100.053 34.2195 101.664 32.6081 103.626 32.6081C105.587 32.6081 107.216 34.2195 107.216 36.1807C107.216 38.1423 105.605 39.7534 103.626 39.7534ZM141.594 65.3573C139.44 65.3573 138.371 64.0965 138.371 62.135V55.515C142.662 55.6903 144.991 58.9301 144.991 61.0667C144.991 63.7636 143.73 65.3748 141.594 65.3748" fill="#2F2822"/>
<path d="M62.0817 6.0945C58.8593 14.3256 53.3076 17.0051 45.0765 17.0051H41.8542C44.5336 14.6758 46.863 10.7529 46.863 7.51306C46.863 3.57264 43.4653 0 38.8069 0C34.5163 0 31.1189 3.39751 31.1189 7.51306C31.1189 10.9106 34.1659 14.3256 37.9139 14.6758C37.3708 15.7441 36.6703 17.0051 34.8666 17.3553H30.3832V22.0138H45.0765C55.637 22.0138 62.9749 18.2485 67.1079 7.88082L62.0817 6.0945ZM38.8069 10.9106C36.8456 10.9106 35.4095 9.4745 35.4095 7.51306C35.4095 5.55161 36.8456 3.94042 38.8069 3.94042C40.7684 3.94042 42.3796 5.55161 42.3796 7.51306C42.3796 9.4745 40.7684 10.9106 38.8069 10.9106Z" fill="#2F2822"/>
<path d="M61.1898 99.4201C61.1898 99.4201 64.3946 108.036 54.7624 115.742V112.502L58.6679 106.338L61.1723 99.4026L61.1898 99.4201Z" fill="#2F2822"/>
</svg>
